<?xml version="1.0" encoding="UTF-8"?>
<svg width="32px" height="32px" viewBox="0 0 32 32" version="1.1" xmlns="http://www.w3.org/2000/svg" xmlns:xlink="http://www.w3.org/1999/xlink">
    <title>Antique Shop Marker</title>
    <g id="Map-Marker" stroke="none" stroke-width="1" fill="none" fill-rule="evenodd">
        <circle id="Background" fill="#0F4C81" cx="16" cy="16" r="16"></circle>
        <g id="Antique-Icon" transform="translate(8.000000, 8.000000)" fill="#FFFFFF" fill-rule="nonzero">
            <path d="M14,6 C14,2.7 11.3,0 8,0 C4.7,0 2,2.7 2,6 C2,9.3 8,16 8,16 C8,16 14,9.3 14,6 Z M6,6 C6,4.9 6.9,4 8,4 C9.1,4 10,4.9 10,6 C10,7.1 9.1,8 8,8 C6.9,8 6,7.1 6,6 Z" id="Pin"></path>
            <path d="M12.5,15 L3.5,15 C3.2,15 3,14.8 3,14.5 C3,14.2 3.2,14 3.5,14 L12.5,14 C12.8,14 13,14.2 13,14.5 C13,14.8 12.8,15 12.5,15 Z" id="Base"></path>
        </g>
    </g>
</svg>
